<svg width="20.000000" height="19.999981" viewBox="0 0 20 20" fill="none" xmlns="http://www.w3.org/2000/svg" xmlns:xlink="http://www.w3.org/1999/xlink">
	<desc>
			Created with Pixso.
	</desc>
	<defs/>
	<path id="Vector" d="M5.79999 0L14.2 0C17.4032 0 20 2.59675 20 5.8L20 14.2C20 17.4033 17.4032 20 14.2 20L5.79999 20C2.59674 20 0 17.4033 0 14.2L0 5.8C0 2.59675 2.59674 0 5.79999 0ZM5.59998 1.99998C3.61176 1.99998 2 3.61176 2 5.59998L2 14.4C2 16.3882 3.61176 18 5.59998 18L14.4 18C16.3882 18 18 16.3882 18 14.4L18 5.59998C18 3.61176 16.3882 1.99998 14.4 1.99998L5.59998 1.99998ZM15.25 3.49998C15.9404 3.49998 16.5 4.05963 16.5 4.74998C16.5 5.44034 15.9404 5.99998 15.25 5.99998C14.5596 5.99998 14 5.44034 14 4.74998C14 4.05963 14.5596 3.49998 15.25 3.49998ZM10 4.99998C12.7614 4.99998 15 7.23856 15 9.99998C15 12.7614 12.7614 15 10 15C7.23859 15 5 12.7614 5 9.99998C5 7.23856 7.23859 4.99998 10 4.99998ZM10 6.99998C8.34308 6.99998 7 8.34318 7 9.99998C7 11.6569 8.34308 13 10 13C11.6569 13 13 11.6569 13 9.99998C13 8.34318 11.6569 6.99998 10 6.99998Z" fill-rule="nonzero" fill="#FFFFFF"/>
</svg>
