<svg width="20.918396" height="17.000000" viewBox="0 0 20.9184 17" fill="none" xmlns="http://www.w3.org/2000/svg" xmlns:xlink="http://www.w3.org/1999/xlink">
	<desc>
			Created with Pixso.
	</desc>
	<defs/>
	<path id="Vector" d="M20.9184 2.01238C20.1488 2.35373 19.3216 2.58442 18.4536 2.68815C19.3395 2.15701 20.0201 1.31598 20.3405 0.31378C19.5112 0.80564 18.5928 1.16278 17.6152 1.3552C16.8324 0.52112 15.7171 0 14.4827 0C12.1126 0 10.1909 1.92147 10.1909 4.29155C10.1909 4.6279 10.2289 4.95546 10.3021 5.2696C6.73529 5.0906 3.573 3.38203 1.4563 0.78551C1.08685 1.41935 0.875244 2.15656 0.875244 2.94309C0.875244 4.43204 1.63287 5.74563 2.78448 6.5153C2.08099 6.4929 1.41919 6.2999 0.840637 5.97846C0.84021 5.99639 0.84021 6.0143 0.84021 6.0324C0.84021 8.1118 2.31958 9.8463 4.28284 10.2406C3.92273 10.3387 3.54358 10.3912 3.15216 10.3912C2.87561 10.3912 2.60675 10.3642 2.34467 10.3142C2.89087 12.0191 4.47577 13.26 6.35376 13.2945C4.88501 14.4457 3.03448 15.1318 1.02374 15.1318C0.677368 15.1318 0.335754 15.1114 0 15.0717C1.89923 16.2894 4.15515 17 6.57874 17C14.4726 17 18.7894 10.4605 18.7894 4.78918C18.7894 4.60314 18.7852 4.41805 18.7769 4.23395C19.6155 3.62886 20.3431 2.87302 20.9184 2.01238Z" fill-rule="nonzero" fill="#FFFFFF"/>
</svg>
