<svg xmlns="http://www.w3.org/2000/svg" aria-hidden="true" style="width: 0; height: 0; position: absolute;"><symbol id="account" viewBox="0 0 20 20" preserveAspectRatio="xMidYMid slice"><path d="M10 0C4.48 0 0 4.48 0 10s4.48 10 10 10 10-4.48 10-10S15.52 0 10 0Zm0 12.5c1.46 0 4.93.59 6.36 2.33A7.95 7.95 0 0 0 18 10c0-4.41-3.59-8-8-8s-8 3.59-8 8c0 1.82.62 3.49 1.64 4.83 1.43-1.74 4.9-2.33 6.36-2.33ZM10 4C8.06 4 6.5 5.56 6.5 7.5S8.06 11 10 11s3.5-1.56 3.5-3.5S11.94 4 10 4ZM8.5 7.5c0 .83.67 1.5 1.5 1.5s1.5-.67 1.5-1.5S10.83 6 10 6s-1.5.67-1.5 1.5Zm-3.43 8.78c.43-.9 3.05-1.78 4.93-1.78s4.51.88 4.93 1.78A7.893 7.893 0 0 1 10 18c-1.86 0-3.57-.64-4.93-1.72Z"></path></symbol><symbol id="down-arrow" viewBox="0 0 16 24" preserveAspectRatio="xMidYMid slice"><path d="m16 16-1.41-1.41L9 20.17V0H7v20.17l-5.58-5.59L0 16l8 8 8-8Z"></path></symbol><symbol id="instagram" viewBox="0 0 20 20" preserveAspectRatio="xMidYMid slice"><path d="M5.8 0h8.4A5.8 5.8 0 0 1 20 5.8v8.4a5.8 5.8 0 0 1-5.8 5.8H5.8A5.8 5.8 0 0 1 0 14.2V5.8A5.8 5.8 0 0 1 5.8 0Zm-.2 2A3.6 3.6 0 0 0 2 5.6v8.8A3.6 3.6 0 0 0 5.6 18h8.8a3.6 3.6 0 0 0 3.6-3.6V5.6A3.6 3.6 0 0 0 14.4 2H5.6Zm9.65 1.5a1.25 1.25 0 1 1 0 2.5 1.25 1.25 0 0 1 0-2.5ZM10 5a5 5 0 1 1 0 10 5 5 0 0 1 0-10Zm0 2a3 3 0 1 0 0 6 3 3 0 0 0 0-6Z"></path></symbol><symbol id="twitter" viewBox="0 0 20.918 17" preserveAspectRatio="xMidYMid slice"><path d="M20.918 2.012a8.58 8.58 0 0 1-2.464.676A4.305 4.305 0 0 0 20.34.314a8.591 8.591 0 0 1-2.725 1.041 4.292 4.292 0 0 0-7.313 3.914A12.184 12.184 0 0 1 1.456.787a4.271 4.271 0 0 0-.58 2.157 4.29 4.29 0 0 0 1.908 3.572 4.276 4.276 0 0 1-1.943-.537v.054c0 2.08 1.479 3.814 3.442 4.209a4.297 4.297 0 0 1-1.938.073 4.296 4.296 0 0 0 4.009 2.98 8.61 8.61 0 0 1-5.33 1.838c-.347 0-.688-.02-1.024-.06A12.147 12.147 0 0 0 6.579 17c7.894 0 12.21-6.54 12.21-12.21 0-.187-.004-.372-.012-.556a8.719 8.719 0 0 0 2.141-2.222Z"></path></symbol></svg>